<svg width="40" height="40" viewBox="0 0 40 40" fill="none" xmlns="http://www.w3.org/2000/svg">
  <circle cx="20" cy="20" r="20" fill="#F7931A"/>
  <path d="M25.92 17.02c.4-2.69-1.64-4.14-4.43-5.1l.91-3.63-2.21-.55-.88 3.53c-.58-.15-1.18-.28-1.77-.42l.89-3.56-2.22-.55-.91 3.63c-.48-.11-.95-.22-1.4-.33l-3.05-.76-.59 2.36s1.64.38 1.6.4c.89.22 1.05.81 1.02 1.28l-1.03 4.14c.06.02.14.04.23.07l-.24-.06-1.45 5.8c-.11.27-.39.68-1.01.53.02.03-1.61-.4-1.61-.4l-1.1 2.53 2.88.72c.54.14 1.06.28 1.58.41l-.92 3.68 2.21.55.91-3.64c.6.16 1.19.31 1.76.45l-.9 3.62 2.22.55.92-3.67c3.78.72 6.62.43 7.82-2.99.96-2.75-.05-4.34-2.04-5.37 1.45-.33 2.54-1.29 2.83-3.26Zm-5.06 7.12c-.69 2.75-5.32 1.26-6.82.89l1.22-4.88c1.49.37 6.31 1.11 5.6 3.99Zm.68-7.16c-.62 2.5-4.48 1.23-5.73.92l1.1-4.42c1.25.31 5.28.9 4.63 3.5Z" fill="white"/>
</svg>
