<svg width="64" height="64" viewBox="0 0 64 64" fill="none" xmlns="http://www.w3.org/2000/svg">
  <circle cx="32" cy="32" r="31" fill="#101827" stroke="rgba(45,212,191,0.42)" stroke-width="2"/>
  <path d="M18.9 18.2C19.4 17.6 20.1 17.3 20.9 17.3H49.2C50.4 17.3 51 18.8 50.1 19.7L44.8 24.8C44.3 25.3 43.6 25.6 42.9 25.6H14.6C13.4 25.6 12.8 24.1 13.7 23.2L18.9 18.2Z" fill="url(#solA)"/>
  <path d="M18.9 39.2C19.4 38.7 20.1 38.4 20.9 38.4H49.2C50.4 38.4 51 39.9 50.1 40.8L44.8 45.8C44.3 46.4 43.6 46.7 42.9 46.7H14.6C13.4 46.7 12.8 45.2 13.7 44.3L18.9 39.2Z" fill="url(#solB)"/>
  <path d="M45.1 28.7C44.6 28.2 43.9 27.9 43.1 27.9H14.8C13.6 27.9 13 29.4 13.9 30.3L19.2 35.3C19.7 35.9 20.4 36.2 21.1 36.2H49.4C50.6 36.2 51.2 34.7 50.3 33.8L45.1 28.7Z" fill="url(#solC)"/>
  <defs>
    <linearGradient id="solA" x1="13" y1="25.6" x2="50.8" y2="17.5" gradientUnits="userSpaceOnUse">
      <stop stop-color="#14F195"/>
      <stop offset="0.52" stop-color="#80ECFF"/>
      <stop offset="1" stop-color="#9945FF"/>
    </linearGradient>
    <linearGradient id="solB" x1="13" y1="46.7" x2="50.8" y2="38.6" gradientUnits="userSpaceOnUse">
      <stop stop-color="#9945FF"/>
      <stop offset="0.5" stop-color="#80ECFF"/>
      <stop offset="1" stop-color="#14F195"/>
    </linearGradient>
    <linearGradient id="solC" x1="13.2" y1="36.2" x2="51" y2="28.1" gradientUnits="userSpaceOnUse">
      <stop stop-color="#14F195"/>
      <stop offset="0.52" stop-color="#80ECFF"/>
      <stop offset="1" stop-color="#9945FF"/>
    </linearGradient>
  </defs>
</svg>
