<svg width="256" height="256" viewBox="84 28 88 190" fill="none" xmlns="http://www.w3.org/2000/svg" role="img" aria-label="Portal Soul placeholder">
  <defs>
    <radialGradient id="shardCore" cx="0" cy="0" r="1" gradientUnits="userSpaceOnUse" gradientTransform="translate(129 126) rotate(90) scale(84 42)">
      <stop stop-color="#F8FAFC" stop-opacity="0.9"/>
      <stop offset="0.22" stop-color="#67E8F9" stop-opacity="0.82"/>
      <stop offset="0.56" stop-color="#7C3AED" stop-opacity="0.58"/>
      <stop offset="1" stop-color="#020617" stop-opacity="0"/>
    </radialGradient>
    <linearGradient id="shardEdge" x1="88" y1="37" x2="169" y2="222" gradientUnits="userSpaceOnUse">
      <stop stop-color="#A5F3FC"/>
      <stop offset="0.46" stop-color="#38BDF8"/>
      <stop offset="0.72" stop-color="#8B5CF6"/>
      <stop offset="1" stop-color="#C4B5FD"/>
    </linearGradient>
    <linearGradient id="shardPaneA" x1="101" y1="51" x2="154" y2="205" gradientUnits="userSpaceOnUse">
      <stop stop-color="#0B1638"/>
      <stop offset="0.44" stop-color="#123A63"/>
      <stop offset="1" stop-color="#170C3F"/>
    </linearGradient>
    <linearGradient id="shardPaneB" x1="121" y1="48" x2="168" y2="181" gradientUnits="userSpaceOnUse">
      <stop stop-color="#67E8F9" stop-opacity="0.58"/>
      <stop offset="0.46" stop-color="#2563EB" stop-opacity="0.34"/>
      <stop offset="1" stop-color="#8B5CF6" stop-opacity="0.44"/>
    </linearGradient>
    <filter id="shardGlow" x="60" y="20" width="136" height="216" filterUnits="userSpaceOnUse" color-interpolation-filters="sRGB">
      <feGaussianBlur stdDeviation="5"/>
    </filter>
  </defs>

  <rect width="256" height="256" fill="transparent"/>
  <path d="M128 32L164 96L128 218L92 96L128 32Z" fill="url(#shardCore)" opacity="0.5" filter="url(#shardGlow)"/>
  <path d="M128 32L164 96L128 218L92 96L128 32Z" fill="#050B18" stroke="url(#shardEdge)" stroke-width="3" stroke-linejoin="round"/>
  <path d="M128 32L128 124L92 96L128 32Z" fill="url(#shardPaneA)" stroke="#67E8F9" stroke-opacity="0.34" stroke-width="1.5" stroke-linejoin="round"/>
  <path d="M128 32L164 96L128 124V32Z" fill="url(#shardPaneB)" stroke="#A5F3FC" stroke-opacity="0.38" stroke-width="1.5" stroke-linejoin="round"/>
  <path d="M92 96L128 124L128 218L92 96Z" fill="#0A1024" stroke="#8B5CF6" stroke-opacity="0.36" stroke-width="1.5" stroke-linejoin="round"/>
  <path d="M128 124L164 96L128 218L128 124Z" fill="#101C46" stroke="#67E8F9" stroke-opacity="0.28" stroke-width="1.5" stroke-linejoin="round"/>
  <path d="M108 98L128 68L148 98L128 124L108 98Z" fill="url(#shardCore)" opacity="0.88"/>
  <path d="M128 44L116 100L128 124L140 100L128 44Z" stroke="#CFFAFE" stroke-opacity="0.34" stroke-width="1.4" stroke-linejoin="round"/>
  <path d="M128 124L128 174L128 218" stroke="#67E8F9" stroke-opacity="0.22" stroke-width="1.4" stroke-linecap="round" stroke-linejoin="round"/>
  <circle cx="128" cy="124" r="9" fill="#ECFEFF" fill-opacity="0.92"/>
  <circle cx="128" cy="124" r="17" stroke="#67E8F9" stroke-opacity="0.28" stroke-width="1.5"/>
</svg>
